PathFileType	4	(X/Y/Z)	/Users/FranklinZhao/OpenSimProject/Simulation/Models/Rajapogal_2015/marker_data/trc/SN001_0010_10m_01.trc
DataRate	CameraRate	NumFrames	NumMarkers	Units	OrigDataRate	OrigDataStartFrame	OrigNumFrames
200.000000	200.000000	4	72	mm	200.000000	0	641
Frame#	Time	LPSIS			RPSIS			LICR			RICR			LASIS			RASIS			STER			XPRO			C7			T4			T8			T10			RUA1			RUA2			RUA3			RUA4			RHLE			RHME			RTEMP			RHEAD			LHEAD			LTEMP			RACR			LACR			LUA1			LUA2			LUA3			LUA4			LHLE			LHME			LFA1			LFA2			LFA3			LRSP			LUSP			RFA1			RFA2			RFA3			RRSP			RUSP			LTH1			LTH2			LTH3			LTH4			LFLE			LFME			LSK1			LSK2			LSK3			LSK4			LTAM			LFAL			LFCC			LFMT1			LFMT2			LFMT5			RTH1			RTH2			RTH3			RTH4			RFLE			RFME			RSK1			RSK2			RSK3			RSK4			RFAL			RTAM			RFCC			RFMT1			RFMT2			RFMT5			
		X1	Y1	Z1	X2	Y2	Z2	X3	Y3	Z3	X4	Y4	Z4	X5	Y5	Z5	X6	Y6	Z6	X7	Y7	Z7	X8	Y8	Z8	X9	Y9	Z9	X10	Y10	Z10	X11	Y11	Z11	X12	Y12	Z12	X13	Y13	Z13	X14	Y14	Z14	X15	Y15	Z15	X16	Y16	Z16	X17	Y17	Z17	X18	Y18	Z18	X19	Y19	Z19	X20	Y20	Z20	X21	Y21	Z21	X22	Y22	Z22	X23	Y23	Z23	X24	Y24	Z24	X25	Y25	Z25	X26	Y26	Z26	X27	Y27	Z27	X28	Y28	Z28	X29	Y29	Z29	X30	Y30	Z30	X31	Y31	Z31	X32	Y32	Z32	X33	Y33	Z33	X34	Y34	Z34	X35	Y35	Z35	X36	Y36	Z36	X37	Y37	Z37	X38	Y38	Z38	X39	Y39	Z39	X40	Y40	Z40	X41	Y41	Z41	X42	Y42	Z42	X43	Y43	Z43	X44	Y44	Z44	X45	Y45	Z45	X46	Y46	Z46	X47	Y47	Z47	X48	Y48	Z48	X49	Y49	Z49	X50	Y50	Z50	X51	Y51	Z51	X52	Y52	Z52	X53	Y53	Z53	X54	Y54	Z54	X55	Y55	Z55	X56	Y56	Z56	X57	Y57	Z57	X58	Y58	Z58	X59	Y59	Z59	X60	Y60	Z60	X61	Y61	Z61	X62	Y62	Z62	X63	Y63	Z63	X64	Y64	Z64	X65	Y65	Z65	X66	Y66	Z66	X67	Y67	Z67	X68	Y68	Z68	X69	Y69	Z69	X70	Y70	Z70	X71	Y71	Z71	X72	Y72	Z72	

1	0	-2264.526611328125	266.4352111816406	952.298095703125	-2260.66162109375	189.1577606201172	948.5806274414062	-2253.105224609375	357.7931518554688	1013.055603027344	-2230.322998046875	100.3277587890625	1026.501831054688	-2081.3017578125	375.4585571289062	934.055908203125	-2059.533447265625	115.934455871582	931.1763305664062	-2091.301513671875	234.6053771972656	1396.273071289062	-2035.965942382812	245.6214294433594	1187.617919921875	-2222.75390625	235.6187286376953	1502.081787109375	-2279.15283203125	252.97802734375	1393.365356445312	-2285.8388671875	246.9365539550781	1258.650146484375	-2284.849853515625	248.8301544189453	1214.3388671875	-2281.210693359375	15.21999740600586	1286.461547851562	-2209.744873046875	8.632545471191406	1261.372314453125	-2223.31005859375	0.5947296619415283	1188.994873046875	-2297.265869140625	6.219605445861816	1202.499389648438	-2292.210693359375	5.560385704040527	1109.799194335938	-2300.71142578125	84.33282470703125	1108.078979492188	-2064.742919921875	141.2257080078125	1651.738159179688	-2020.763549804688	174.6428680419922	1663.32373046875	-2019.078857421875	256.5943908691406	1662.736938476562	-2065.660888671875	297.2929992675781	1647.728271484375	-2199.053466796875	53.91067504882812	1441.066040039062	-2161.73828125	423.2778625488281	1466.878784179688	-2095.453857421875	483.9088745117188	1330.347900390625	-2158.78857421875	509.2736511230469	1299.278076171875	-2127.087890625	536.4380493164062	1223.621948242188	-2064.062255859375	510.0552062988281	1252.968139648438	-2073.7666015625	542.0203247070312	1163.2724609375	-2110.77490234375	488.1714477539062	1124.843872070312	-1872.8701171875	495.1221313476562	1050.50048828125	-1873.762084960938	541.5156860351562	1049.564331054688	-1864.823608398438	508.9358520507812	1019.965698242188	-1864.243530273438	474.9861145019531	977.9724731445312	-1873.024291992188	544.00341796875	964.5105590820312	-2263.74609375	-52.43881607055664	919.0711669921875	-2234.638916015625	-17.03622627258301	907.8584594726562	-2257.53125	-25.60305976867676	883.173095703125	-2265.109375	2.660081386566162	829.0987548828125	-2310.96044921875	-41.72918319702148	847.6365966796875	-2230.995849609375	407.3958129882812	683.2808837890625	-2276.240478515625	398.0165710449219	703.6309814453125	-2323.055908203125	376.3007507324219	609.0563354492188	-2263.5771484375	389.5120849609375	587.59814453125	-2337.22412109375	364.9466247558594	515.1226806640625	-2332.739501953125	246.3930053710938	502.0289611816406	-2426.89599609375	378.8987426757812	355.9197082519531	-2481.455078125	367.3257751464844	383.9855651855469	-2518.99169921875	348.8274230957031	306.3534240722656	-2461.5283203125	364.362548828125	281.8750305175781	-2524.648193359375	243.6095581054688	126.3244476318359	-2573.580810546875	307.6728515625	128.5469055175781	-2610.034912109375	252.9142150878906	106.6023025512695	-2417.241455078125	272.372802734375	29.47866058349609	-2422.472900390625	308.3817443847656	29.71332931518555	-2473.27001953125	349.6193237304688	26.2136402130127	-2058.134033203125	69.67119598388672	675.5659790039062	-1999.988891601562	63.87926483154297	685.6953735351562	-1956.610717773438	73.71430969238281	611.0667724609375	-2015.313720703125	83.18077087402344	584.8015747070312	-1941.90869140625	102.9895706176758	501.6965026855469	-1912.7705078125	227.1263885498047	489.6223754882812	-1903.204711914062	89.81029510498047	327.2116088867188	-1863.63525390625	77.64995574951172	369.314453125	-1807.150024414062	90.07776641845703	277.2094421386719	-1866.220458984375	96.87776947021484	253.7466888427734	-1754.162353515625	128.7671813964844	77.38619232177734	-1721.767944335938	197.9328918457031	119.1832504272461	-1764.379272460938	184.7541351318359	39.47856903076172	-1588.627197265625	148.8238220214844	118.3154296875	-1589.962158203125	116.6192626953125	117.5898971557617	-1618.86328125	81.06001281738281	87.65819549560547	
2	0.005	-2254.64501953125	265.6349182128906	952.1019897460938	-2250.515869140625	188.3437042236328	948.2444458007812	-2243.45849609375	356.9622497558594	1012.743774414062	-2220.04833984375	99.28958892822266	1026.189331054688	-2071.613525390625	375.2455444335938	933.977783203125	-2049.52001953125	115.7561950683594	931.306884765625	-2081.99658203125	234.1257934570312	1396.189086914062	-2026.382568359375	245.4581604003906	1187.738891601562	-2213.7587890625	234.7972259521484	1501.984497070312	-2269.869140625	252.1995391845703	1392.97802734375	-2276.3681640625	246.0409851074219	1258.203247070312	-2275.364013671875	247.9498748779297	1213.822875976562	-2271.6396484375	14.50366687774658	1286.105712890625	-2200.159423828125	8.353675842285156	1260.697875976562	-2213.90380859375	0.3167195916175842	1188.3955078125	-2287.720703125	5.686967372894287	1201.98486328125	-2282.839599609375	5.366097927093506	1109.30224609375	-2291.993896484375	83.96117401123047	1108.161376953125	-2055.770263671875	140.7237701416016	1651.404541015625	-2011.770629882812	174.0632934570312	1663.061401367188	-2010.198486328125	256.2271728515625	1662.653442382812	-2056.84228515625	296.7050476074219	1647.621337890625	-2189.336181640625	53.13346862792969	1440.633178710938	-2152.900390625	422.5831604003906	1466.710205078125	-2086.910888671875	483.440673828125	1330.102172851562	-2150.386474609375	508.5357971191406	1299.114868164062	-2118.8896484375	535.678466796875	1223.466674804688	-2055.62060546875	509.4050903320312	1252.58935546875	-2065.340087890625	541.3689575195312	1163.161987304688	-2102.175537109375	487.171142578125	1124.653930664062	-1864.451171875	495.1148376464844	1050.382202148438	-1865.543334960938	541.4616088867188	1049.49462890625	-1856.426635742188	508.9675903320312	1019.970153808594	-1855.759155273438	474.9326171875	977.9814453125	-1864.716674804688	543.8776245117188	964.403076171875	-2255.220703125	-52.17234802246094	918.5728149414062	-2226.604736328125	-16.66163635253906	906.8755493164062	-2249.507080078125	-25.35657501220703	882.8157958984375	-2257.504638671875	2.99510645866394	828.5611572265625	-2303.2197265625	-41.54755783081055	847.476318359375	-2222.54345703125	407.0444030761719	683.6144409179688	-2267.725830078125	397.4442443847656	704.345458984375	-2314.728515625	375.8518676757812	609.6533203125	-2255.38623046875	389.1909790039062	588.0393676757812	-2329.414794921875	364.9157409667969	515.7305297851562	-2324.148681640625	246.3145141601562	501.9145812988281	-2421.218994140625	378.918212890625	357.742431640625	-2475.2958984375	366.9699401855469	386.3297424316406	-2513.81005859375	348.61767578125	309.2677001953125	-2456.84326171875	364.7538757324219	284.2198181152344	-2521.72412109375	244.5188751220703	129.0513000488281	-2570.85986328125	308.2505187988281	132.3311157226562	-2607.40673828125	253.4187774658203	111.3896255493164	-2416.9736328125	272.4115295410156	29.45698928833008	-2422.262939453125	308.3327941894531	29.72819900512695	-2472.74609375	349.4618225097656	26.8261833190918	-2049.3125	68.20895385742188	676.3967895507812	-1990.121337890625	63.54864501953125	685.531494140625	-1947.390991210938	73.36260223388672	610.664306640625	-2006.1474609375	82.75570678710938	584.8118286132812	-1933.19091796875	102.845947265625	501.3814086914062	-1904.474487304688	227.0166473388672	489.011962890625	-1894.778076171875	89.97270965576172	326.4135131835938	-1855.127563476562	77.49476623535156	368.6178283691406	-1798.78759765625	90.01660919189453	276.4024658203125	-1857.652587890625	97.37995147705078	252.709716796875	-1745.809448242188	129.5927734375	76.42694854736328	-1713.386596679688	198.4099426269531	118.6277313232422	-1755.555908203125	185.7977600097656	38.79959487915039	-1580.348388671875	149.3303985595703	118.2096099853516	-1581.563110351562	116.870246887207	116.8920211791992	-1610.09716796875	82.30515289306641	85.96151733398438	
3	0.01	-2244.55615234375	264.9061584472656	951.9420166015625	-2240.536865234375	187.5427093505859	948.3320922851562	-2233.7412109375	356.3724365234375	1012.379333496094	-2209.819091796875	98.51321411132812	1026.249145507812	-2061.736328125	374.8495483398438	933.7994995117188	-2039.41015625	115.5292053222656	931.5901489257812	-2072.6845703125	233.5445251464844	1396.164916992188	-2016.684326171875	245.1456146240234	1187.66015625	-2204.42529296875	233.9994201660156	1501.5888671875	-2260.500732421875	251.3937072753906	1392.744262695312	-2266.696533203125	245.5069885253906	1257.940063476562	-2265.671630859375	247.3188018798828	1213.599365234375	-2262.02392578125	13.85459136962891	1285.8388671875	-2190.529052734375	7.879926204681396	1260.403930664062	-2204.243408203125	0.04406805336475372	1187.937744140625	-2278.145263671875	5.218866348266602	1201.684326171875	-2273.2392578125	5.121936798095703	1109.155639648438	-2282.24658203125	83.84011077880859	1107.80126953125	-2046.711547851562	140.1988525390625	1651.457275390625	-2002.797241210938	173.6412200927734	1663.052978515625	-2001.263671875	255.7702331542969	1662.43408203125	-2047.851318359375	296.1600646972656	1647.630493164062	-2179.781005859375	52.50100708007812	1440.27587890625	-2144.12841796875	421.9224243164062	1466.808471679688	-2078.37451171875	482.8661804199219	1330.057983398438	-2142.122802734375	507.7727661132812	1299.06396484375	-2110.705810546875	534.9089965820312	1223.285400390625	-2047.427490234375	508.9556884765625	1252.4375	-2057.511474609375	540.8822021484375	1163.129516601562	-2093.67431640625	485.9178771972656	1124.527954101562	-1856.2734375	495.2342834472656	1050.25927734375	-1857.460205078125	541.385986328125	1049.313598632812	-1848.220703125	508.9390258789062	1019.768432617188	-1847.449462890625	474.9656982421875	977.7980346679688	-1856.7080078125	543.8916625976562	964.3313598632812	-2246.614013671875	-51.88063049316406	918.0692138671875	-2217.821044921875	-16.74106788635254	906.41748046875	-2241.2958984375	-25.11109924316406	882.0518798828125	-2249.90283203125	3.230017900466919	828.05126953125	-2295.04443359375	-41.67354583740234	847.240966796875	-2213.80517578125	406.7055053710938	684.05322265625	-2258.90478515625	396.8621215820312	704.8446655273438	-2306.13623046875	375.3501892089844	610.29248046875	-2246.953125	389.4413452148438	588.5399780273438	-2321.26025390625	364.8935852050781	516.3361206054688	-2315.352294921875	246.4659729003906	502.0176696777344	-2415.235107421875	378.9662170410156	359.6519470214844	-2468.86572265625	366.8046569824219	389.0022277832031	-2508.43115234375	348.5241394042969	312.2620544433594	-2451.90087890625	365.0464477539062	286.6290283203125	-2518.48486328125	245.2744903564453	131.7569732666016	-2567.859619140625	308.8257446289062	136.0765228271484	-2604.279541015625	253.9943237304688	116.2763290405273	-2416.68408203125	272.65380859375	29.39026832580566	-2422.05517578125	308.2831726074219	29.69658660888672	-2472.167724609375	349.4326171875	27.44990921020508	-2039.250854492188	67.57322692871094	676.8758544921875	-1980.00634765625	63.17824172973633	685.792724609375	-1937.450073242188	73.17017364501953	610.7158203125	-1996.392456054688	82.23509979248047	585.0963134765625	-1923.869262695312	102.7515182495117	501.4152221679688	-1895.721435546875	226.7337036132812	489.0871887207031	-1886.393920898438	90.14182281494141	325.4955749511719	-1846.719848632812	77.16921997070312	367.5034790039062	-1790.69189453125	90.28878021240234	275.1219787597656	-1849.512817382812	97.95259094238281	251.9855041503906	-1738.438110351562	130.468994140625	75.24769592285156	-1705.775390625	198.9306335449219	117.7135848999023	-1747.987060546875	187.0019989013672	37.62314987182617	-1572.929321289062	150.0731201171875	117.3963394165039	-1574.009765625	117.5098342895508	115.7500076293945	-1602.547485351562	83.1617431640625	84.24983978271484	
4	0.015	-2234.2490234375	264.003662109375	951.8821411132812	-2230.348388671875	186.7920227050781	948.4032592773438	-2223.787109375	355.6886596679688	1012.255187988281	-2199.4365234375	97.94583892822266	1026.454956054688	-2051.858642578125	374.5354309082031	933.5247802734375	-2029.084594726562	115.4503784179688	932.03955078125	-2063.23876953125	233.0373840332031	1396.189208984375	-2006.679809570312	244.7275238037109	1187.90087890625	-2195.213134765625	233.2216491699219	1501.386962890625	-2251.08935546875	250.4502868652344	1392.470092773438	-2257.01708984375	244.7072906494141	1257.699829101562	-2255.75	246.6572570800781	1213.332763671875	-2252.216064453125	13.17624664306641	1285.596069335938	-2180.8271484375	7.426838874816895	1259.967163085938	-2194.458251953125	-0.25916987657547	1187.649658203125	-2268.4404296875	4.716320991516113	1201.383911132812	-2263.541259765625	5.004353523254395	1108.818237304688	-2273.081787109375	83.51532745361328	1108.086181640625	-2037.592895507812	139.7368316650391	1651.506591796875	-1993.75439453125	173.0356597900391	1663.1650390625	-1992.258422851562	255.1930694580078	1662.7578125	-2039.026489257812	295.6817932128906	1647.480346679688	-2170.330322265625	51.76822662353516	1440.131958007812	-2135.30029296875	421.1769409179688	1466.868896484375	-2069.874755859375	482.4162902832031	1330.063720703125	-2133.771484375	506.9037475585938	1299.0986328125	-2102.555419921875	534.1482543945312	1223.278198242188	-2039.09765625	508.4733581542969	1252.278686523438	-2049.276611328125	539.9408569335938	1162.559448242188	-2085.41162109375	484.8055725097656	1124.467651367188	-1848.087890625	495.1351318359375	1050.152709960938	-1849.589477539062	541.4193725585938	1049.00390625	-1840.1455078125	508.9600524902344	1019.672058105469	-1839.341674804688	475.1839294433594	977.5133056640625	-1848.804077148438	543.8027954101562	964.158203125	-2237.683349609375	-51.87507247924805	917.8438110351562	-2209.673095703125	-15.60784912109375	905.8041381835938	-2232.84765625	-24.60321235656738	881.6452026367188	-2242.033203125	3.687840938568115	827.71728515625	-2286.8330078125	-41.63747024536133	847.1832885742188	-2204.885986328125	406.2929992675781	684.196044921875	-2249.878662109375	396.1353454589844	705.2710571289062	-2297.401611328125	374.8182678222656	610.8388061523438	-2238.49169921875	388.8820495605469	588.7409057617188	-2312.73388671875	364.8166809082031	516.8397827148438	-2306.242919921875	246.7041625976562	501.9364624023438	-2409.0068359375	379.3762512207031	361.4191284179688	-2462.09912109375	366.642333984375	391.4849548339844	-2502.6484375	348.497802734375	315.3241577148438	-2446.62451171875	365.3124389648438	288.8582763671875	-2515.019287109375	246.1439971923828	134.7571716308594	-2564.638427734375	310.0440673828125	140.5823822021484	-2601.0009765625	254.1797180175781	120.8359680175781	-2416.40771484375	272.8776550292969	29.41133689880371	-2421.83447265625	308.2544860839844	29.7363395690918	-2471.488037109375	349.2404479980469	28.32489776611328	-2027.71826171875	68.18973541259766	676.8231201171875	-1969.397094726562	62.87323760986328	686.424560546875	-1927.019897460938	72.89922332763672	611.265625	-1986.186157226562	81.91476440429688	585.5430908203125	-1914.201904296875	102.5401763916016	501.753173828125	-1886.533935546875	226.3653259277344	489.3090209960938	-1878.232666015625	90.49158477783203	324.7877502441406	-1838.291748046875	77.20919799804688	366.493408203125	-1782.95361328125	90.63375091552734	273.9671630859375	-1841.972778320312	98.62085723876953	250.8162384033203	-1731.853271484375	131.3218688964844	73.62210083007812	-1698.763916015625	199.5941619873047	116.2227172851562	-1741.59228515625	187.7335205078125	36.40480804443359	-1566.221313476562	150.9721527099609	115.5700454711914	-1567.210571289062	118.4234466552734	113.7576217651367	-1595.839965820312	84.12337493896484	81.49748229980469	
